REM DIRINDEX 1\2,1\4,1\5,1\6,1\7,1\3\8,1\3\9,1\3\10
REM DIRNAME cjc113,folder01,folder02,folder03,folder04,folder05,folder06,folder07,folder08,folder09
TITLE ""
FILE "DB4500_5th_5C_19.mp3" MP3
  TRACK 01 AUDIO
    TITLE "8:cjc113_4057"
    INDEX 01 00:00:00
  TRACK 02 AUDIO
    TITLE "0:"
    INDEX 01 00:01:21
  TRACK 03 AUDIO
    TITLE "9:cjc113_4058"
    INDEX 01 00:01:30
  TRACK 04 AUDIO
    TITLE "0:"
    INDEX 01 00:02:67
  TRACK 05 AUDIO
    TITLE "10:cjc113_4059"
    INDEX 01 00:03:02
  TRACK 06 AUDIO
    TITLE "0:"
    INDEX 01 00:07:25
  TRACK 07 AUDIO
    TITLE "8:cjc113_4060"
    INDEX 01 00:07:56
  TRACK 08 AUDIO
    TITLE "0:"
    INDEX 01 00:09:08
  TRACK 09 AUDIO
    TITLE "9:cjc113_4061"
    INDEX 01 00:09:18
  TRACK 10 AUDIO
    TITLE "0:"
    INDEX 01 00:10:39
  TRACK 11 AUDIO
    TITLE "10:cjc113_4062"
    INDEX 01 00:10:51
  TRACK 12 AUDIO
    TITLE "0:"
    INDEX 01 00:14:11
  TRACK 13 AUDIO
    TITLE "8:cjc113_4063"
    INDEX 01 00:14:43
  TRACK 14 AUDIO
    TITLE "0:"
    INDEX 01 00:15:58
  TRACK 15 AUDIO
    TITLE "9:cjc113_4064"
    INDEX 01 00:15:66
  TRACK 16 AUDIO
    TITLE "0:"
    INDEX 01 00:17:29
  TRACK 17 AUDIO
    TITLE "10:cjc113_4065"
    INDEX 01 00:17:31
  TRACK 18 AUDIO
    TITLE "0:"
    INDEX 01 00:19:30
  TRACK 19 AUDIO
    TITLE "8:cjc113_4066"
    INDEX 01 00:19:62
  TRACK 20 AUDIO
    TITLE "0:"
    INDEX 01 00:20:67
  TRACK 21 AUDIO
    TITLE "9:cjc113_4067"
    INDEX 01 00:21:02
  TRACK 22 AUDIO
    TITLE "0:"
    INDEX 01 00:22:32
  TRACK 23 AUDIO
    TITLE "10:cjc113_4068"
    INDEX 01 00:22:38
  TRACK 24 AUDIO
    TITLE "0:"
    INDEX 01 00:25:25
  TRACK 25 AUDIO
    TITLE "8:cjc113_4069"
    INDEX 01 00:25:58
  TRACK 26 AUDIO
    TITLE "0:"
    INDEX 01 00:26:66
  TRACK 27 AUDIO
    TITLE "9:cjc113_4070"
    INDEX 01 00:26:73
  TRACK 28 AUDIO
    TITLE "0:"
    INDEX 01 00:28:25
  TRACK 29 AUDIO
    TITLE "10:cjc113_4071"
    INDEX 01 00:28:33
  TRACK 30 AUDIO
    TITLE "0:"
    INDEX 01 00:32:01
  TRACK 31 AUDIO
    TITLE "8:cjc113_4072"
    INDEX 01 00:32:33
  TRACK 32 AUDIO
    TITLE "0:"
    INDEX 01 00:33:58
  TRACK 33 AUDIO
    TITLE "9:cjc113_4073"
    INDEX 01 00:33:68
  TRACK 34 AUDIO
    TITLE "0:"
    INDEX 01 00:35:04
  TRACK 35 AUDIO
    TITLE "10:cjc113_4074"
    INDEX 01 00:35:14
  TRACK 36 AUDIO
    TITLE "0:"
    INDEX 01 00:38:16
  TRACK 37 AUDIO
    TITLE "8:cjc113_4075"
    INDEX 01 00:38:49
  TRACK 38 AUDIO
    TITLE "0:"
    INDEX 01 00:39:66
  TRACK 39 AUDIO
    TITLE "9:cjc113_4076"
    INDEX 01 00:40:01
  TRACK 40 AUDIO
    TITLE "0:"
    INDEX 01 00:41:08
  TRACK 41 AUDIO
    TITLE "10:cjc113_4077"
    INDEX 01 00:41:16
  TRACK 42 AUDIO
    TITLE "0:"
    INDEX 01 00:45:35
  TRACK 43 AUDIO
    TITLE "8:cjc113_4078"
    INDEX 01 00:45:63
  TRACK 44 AUDIO
    TITLE "0:"
    INDEX 01 00:47:01
  TRACK 45 AUDIO
    TITLE "9:cjc113_4079"
    INDEX 01 00:47:07
  TRACK 46 AUDIO
    TITLE "0:"
    INDEX 01 00:48:28
  TRACK 47 AUDIO
    TITLE "10:cjc113_4080"
    INDEX 01 00:48:38
  TRACK 48 AUDIO
    TITLE "0:"
    INDEX 01 00:51:71
  TRACK 49 AUDIO
    TITLE "8:cjc113_4081"
    INDEX 01 00:52:28
  TRACK 50 AUDIO
    TITLE "0:"
    INDEX 01 00:53:31
  TRACK 51 AUDIO
    TITLE "9:cjc113_4082"
    INDEX 01 00:53:41
  TRACK 52 AUDIO
    TITLE "0:"
    INDEX 01 00:54:64
  TRACK 53 AUDIO
    TITLE "10:cjc113_4083"
    INDEX 01 00:54:72
  TRACK 54 AUDIO
    TITLE "0:"
    INDEX 01 00:58:13
  TRACK 55 AUDIO
    TITLE "8:cjc113_4084"
    INDEX 01 00:58:40
  TRACK 56 AUDIO
    TITLE "0:"
    INDEX 01 00:59:51
  TRACK 57 AUDIO
    TITLE "9:cjc113_4085"
    INDEX 01 00:59:59
  TRACK 58 AUDIO
    TITLE "0:"
    INDEX 01 01:01:33
  TRACK 59 AUDIO
    TITLE "10:cjc113_4086"
    INDEX 01 01:01:38
  TRACK 60 AUDIO
    TITLE "0:"
    INDEX 01 01:03:57
  TRACK 61 AUDIO
    TITLE "8:cjc113_4087"
    INDEX 01 01:04:15
  TRACK 62 AUDIO
    TITLE "0:"
    INDEX 01 01:05:52
  TRACK 63 AUDIO
    TITLE "9:cjc113_4088"
    INDEX 01 01:05:60
  TRACK 64 AUDIO
    TITLE "0:"
    INDEX 01 01:07:10
  TRACK 65 AUDIO
    TITLE "10:cjc113_4089"
    INDEX 01 01:07:19
  TRACK 66 AUDIO
    TITLE "0:"
    INDEX 01 01:11:45
